<svg version="1.1" id="Layer_1" xmlns="http://www.w3.org/2000/svg" xmlns:xlink="http://www.w3.org/1999/xlink" x="0px" y="0px"
	 width="100%" viewBox="0 0 2000 1500" enable-background="new 0 0 2000 1500" xml:space="preserve">
<path fill="#111111" opacity="1.000000" stroke="none" 
	d="
M1444.000000,1501.000000 
	C962.666809,1501.000000 481.833618,1501.000000 1.000323,1501.000000 
	C1.000215,1001.000305 1.000215,501.000580 1.000108,1.000658 
	C667.666199,1.000439 1334.332397,1.000439 2000.998901,1.000219 
	C2000.999268,500.999359 2000.999268,1000.998718 2000.999634,1500.999023 
	C1815.500000,1501.000000 1630.000000,1501.000000 1444.000000,1501.000000 
M1711.346558,1114.833252 
	C1724.423584,1091.782349 1731.463867,1066.751587 1731.756348,1040.514648 
	C1732.477051,975.861755 1732.595459,911.190002 1731.887329,846.537537 
	C1731.416748,803.575195 1711.649536,769.663269 1678.132202,743.617249 
	C1667.916016,735.678406 1656.787598,728.913635 1646.543457,721.929199 
	C1654.857422,713.281189 1663.503174,704.784302 1671.588501,695.783813 
	C1694.928467,669.802124 1708.110962,639.530762 1708.240601,604.313477 
	C1708.433838,551.822937 1708.487915,499.328308 1708.023315,446.840515 
	C1707.803833,422.032135 1702.893921,397.873138 1693.526245,374.823792 
	C1680.766846,343.429230 1659.334106,319.751129 1629.326050,303.846710 
	C1594.082397,285.167450 1557.285156,271.763153 1516.809692,271.715637 
	C1401.982178,271.580811 1287.154297,271.677643 1172.326660,271.654572 
	C1160.253418,271.652161 1148.473022,273.211304 1136.937866,276.937103 
	C1115.359619,283.906860 1101.684326,297.834137 1098.476929,320.703644 
	C1097.278687,329.247314 1096.708008,337.949707 1096.705200,346.580017 
	C1096.615845,619.566528 1096.630737,892.553040 1096.644409,1165.539551 
	C1096.644531,1169.203979 1096.677368,1172.880493 1096.959473,1176.530884 
	C1098.600464,1197.765259 1108.633545,1213.517944 1129.040039,1220.447021 
	C1156.528076,1229.780640 1183.963257,1229.066040 1210.607422,1216.318359 
	C1228.658691,1207.682007 1237.197021,1193.974731 1237.207031,1173.514648 
	C1237.334229,914.860901 1237.790405,656.207397 1238.162231,397.553864 
	C1238.164795,395.780182 1238.162598,394.006531 1238.162598,391.922699 
	C1240.225708,391.922699 1241.702026,391.922699 1243.178467,391.922699 
	C1324.674438,391.922729 1406.170410,391.900085 1487.666382,391.970581 
	C1493.480103,391.975616 1499.340698,392.315765 1505.097656,393.100891 
	C1521.164307,395.292145 1535.941650,400.652802 1546.742432,413.412445 
	C1559.466553,428.444427 1567.564087,445.981018 1567.699341,465.700775 
	C1568.042480,515.681824 1567.578247,565.673462 1566.907104,615.653748 
	C1566.657104,634.264709 1557.592773,648.176819 1541.028564,657.123962 
	C1528.053223,664.132568 1513.895996,665.795898 1499.574097,666.713562 
	C1498.126587,666.806335 1496.459961,665.235657 1495.070679,664.201111 
	C1483.748047,655.769226 1472.955933,646.509888 1461.066772,638.979492 
	C1439.824707,625.524902 1416.500366,623.246521 1392.393799,629.663086 
	C1337.701538,644.220520 1306.587158,703.318604 1325.685425,758.037292 
	C1350.290527,828.533508 1436.983887,845.770569 1487.488159,795.217102 
	C1497.539429,785.155945 1506.557495,782.186218 1519.148193,786.012085 
	C1520.732910,786.493713 1522.397705,786.726013 1524.035278,787.018372 
	C1571.171265,795.433228 1591.116577,836.392090 1590.868896,869.042969 
	C1590.502319,917.371094 1590.781982,965.704163 1590.768799,1014.035095 
	C1590.765137,1027.123169 1588.976196,1039.892456 1584.122803,1052.159546 
	C1575.776123,1073.255859 1562.540039,1089.369507 1539.370972,1094.469971 
	C1530.171265,1096.495239 1520.606689,1097.670654 1511.192749,1097.771118 
	C1475.865234,1098.148438 1440.531128,1097.911621 1405.199585,1097.926270 
	C1384.867676,1097.934692 1364.532227,1097.762817 1344.204590,1098.073608 
	C1321.563477,1098.419678 1306.497803,1110.318604 1300.838989,1132.180664 
	C1296.458008,1149.105835 1296.519287,1166.194092 1300.984619,1183.080322 
	C1307.569946,1207.983765 1321.000244,1218.126465 1346.560303,1218.126465 
	C1402.057495,1218.126587 1457.556519,1218.362183 1513.050781,1217.959473 
	C1526.803101,1217.859741 1540.785278,1216.921265 1554.239380,1214.244995 
	C1597.401978,1205.659424 1635.471436,1185.394165 1671.061279,1160.270020 
	C1687.721436,1148.509033 1700.851318,1133.231323 1711.346558,1114.833252 
M788.855774,688.666504 
	C763.932129,677.897827 738.044739,672.635498 710.745850,672.785706 
	C637.916382,673.186523 565.083130,672.984863 492.251709,672.838623 
	C483.623291,672.821289 474.916504,672.198730 466.386047,670.921509 
	C445.920532,667.857239 430.234863,657.657837 420.146576,639.091492 
	C411.988037,624.076721 408.306732,608.123474 408.300049,591.187195 
	C408.284576,552.021423 408.280396,512.855652 408.302582,473.689880 
	C408.309723,461.090149 410.182800,448.808075 415.028748,437.097443 
	C422.911530,418.048035 434.405792,402.134979 455.380249,396.607391 
	C466.036133,393.799164 477.321442,392.188965 488.334778,392.122467 
	C554.830872,391.721039 621.330627,391.893433 687.828979,391.971649 
	C693.976196,391.978882 700.170044,392.309448 706.260864,393.109558 
	C728.201233,395.991699 745.356750,406.009796 756.062988,426.181458 
	C763.887207,440.923096 767.998108,456.390137 767.984192,473.036865 
	C767.966919,493.869354 767.760986,514.706970 768.143921,535.533081 
	C768.572998,558.865173 781.242676,575.382202 803.310303,582.199524 
	C824.014526,588.595581 845.072021,588.782532 866.025574,584.234314 
	C895.718628,577.789185 909.186951,561.291870 909.591431,530.888062 
	C909.943909,504.397003 909.619873,477.892883 909.291382,451.398285 
	C909.067322,433.332001 906.243408,415.586456 900.951721,398.293610 
	C889.407959,360.569122 867.504578,330.638458 833.585205,310.046783 
	C824.367004,304.450623 814.775513,299.402283 805.071533,294.686462 
	C777.148193,281.116547 748.207397,271.537506 716.604187,271.605011 
	C630.939819,271.787964 545.274841,271.615814 459.610291,271.748993 
	C451.148315,271.762146 442.597290,272.326813 434.243286,273.631897 
	C403.384827,278.452545 375.648956,291.579773 348.599579,306.494171 
	C332.246521,315.510864 317.993225,327.052643 305.981750,341.270111 
	C279.235809,372.928070 267.761383,410.342651 267.109802,451.020721 
	C266.295746,501.840179 266.697510,552.681335 266.851746,603.512207 
	C266.883514,613.979248 267.543213,624.521912 268.927704,634.894287 
	C275.932495,687.372925 300.357452,728.835144 346.337463,756.727295 
	C384.289764,779.749695 424.667480,792.751038 469.672058,792.201416 
	C541.992981,791.318115 614.332520,791.937683 686.664185,792.011353 
	C692.978943,792.017822 699.349792,792.269531 705.596619,793.123840 
	C723.513611,795.573914 739.321594,802.152222 750.122498,817.624634 
	C761.887024,834.477539 767.982605,853.146362 767.976196,873.761292 
	C767.961487,921.260193 767.982300,968.759155 767.964783,1016.258057 
	C767.960144,1028.864868 765.829468,1041.082031 761.098755,1052.815430 
	C752.760742,1073.495972 739.659973,1089.367554 716.888916,1094.373169 
	C707.368042,1096.466187 697.462952,1097.727173 687.725403,1097.770752 
	C622.728149,1098.062012 557.729004,1097.949951 492.730530,1097.880737 
	C485.911346,1097.873535 479.051453,1097.665161 472.281403,1096.911865 
	C449.194611,1094.343018 431.008667,1084.319092 419.884796,1062.892090 
	C412.018799,1047.740479 408.335114,1031.819092 408.293976,1014.896790 
	C408.236053,991.065186 408.462952,967.228333 408.028168,943.403564 
	C407.602051,920.050476 395.153015,903.827271 372.731750,896.887817 
	C352.244202,890.546814 331.309357,890.143555 310.496155,894.606812 
	C280.197662,901.103943 267.004272,917.709778 266.780579,948.679077 
	C266.604858,973.010620 266.350250,997.352966 266.883942,1021.674011 
	C267.222961,1037.122803 267.930817,1052.694824 270.248688,1067.941772 
	C275.216949,1100.623047 288.446930,1129.688843 311.711670,1153.684448 
	C328.015961,1170.500854 347.552917,1182.874023 368.123535,1193.608887 
	C396.318085,1208.322388 425.969177,1218.105957 458.213898,1218.105347 
	C545.378235,1218.103516 632.542664,1218.122925 719.706848,1218.007568 
	C726.678101,1217.998413 733.714661,1217.460327 740.607727,1216.419067 
	C781.105042,1210.301147 816.389709,1192.300293 848.639587,1167.892822 
	C870.658875,1151.228027 886.323303,1129.581543 896.356018,1103.844971 
	C904.856445,1082.039185 909.112915,1059.342041 909.265991,1036.052246 
	C909.649353,977.724426 909.953125,919.389282 909.361694,861.066467 
	C909.194092,844.537964 907.134094,827.765442 903.689209,811.584412 
	C894.600037,768.891785 871.521362,735.257507 834.053223,712.410889 
	C819.767883,703.700317 804.430481,696.715210 788.855774,688.666504 
z"/>
<path fill="#FFFFFF" opacity="1.000000" stroke="none" 
	d="
M1711.180176,1115.160645 
	C1700.851318,1133.231323 1687.721436,1148.509033 1671.061279,1160.270020 
	C1635.471436,1185.394165 1597.401978,1205.659424 1554.239380,1214.244995 
	C1540.785278,1216.921265 1526.803101,1217.859741 1513.050781,1217.959473 
	C1457.556519,1218.362183 1402.057495,1218.126587 1346.560303,1218.126465 
	C1321.000244,1218.126465 1307.569946,1207.983765 1300.984619,1183.080322 
	C1296.519287,1166.194092 1296.458008,1149.105835 1300.838989,1132.180664 
	C1306.497803,1110.318604 1321.563477,1098.419678 1344.204590,1098.073608 
	C1364.532227,1097.762817 1384.867676,1097.934692 1405.199585,1097.926270 
	C1440.531128,1097.911621 1475.865234,1098.148438 1511.192749,1097.771118 
	C1520.606689,1097.670654 1530.171265,1096.495239 1539.370972,1094.469971 
	C1562.540039,1089.369507 1575.776123,1073.255859 1584.122803,1052.159546 
	C1588.976196,1039.892456 1590.765137,1027.123169 1590.768799,1014.035095 
	C1590.781982,965.704163 1590.502319,917.371094 1590.868896,869.042969 
	C1591.116577,836.392090 1571.171265,795.433228 1524.035278,787.018372 
	C1522.397705,786.726013 1520.732910,786.493713 1519.148193,786.012085 
	C1506.557495,782.186218 1497.539429,785.155945 1487.488159,795.217102 
	C1436.983887,845.770569 1350.290527,828.533508 1325.685425,758.037292 
	C1306.587158,703.318604 1337.701538,644.220520 1392.393799,629.663086 
	C1416.500366,623.246521 1439.824707,625.524902 1461.066772,638.979492 
	C1472.955933,646.509888 1483.748047,655.769226 1495.070679,664.201111 
	C1496.459961,665.235657 1498.126587,666.806335 1499.574097,666.713562 
	C1513.895996,665.795898 1528.053223,664.132568 1541.028564,657.123962 
	C1557.592773,648.176819 1566.657104,634.264709 1566.907104,615.653748 
	C1567.578247,565.673462 1568.042480,515.681824 1567.699341,465.700775 
	C1567.564087,445.981018 1559.466553,428.444427 1546.742432,413.412445 
	C1535.941650,400.652802 1521.164307,395.292145 1505.097656,393.100891 
	C1499.340698,392.315765 1493.480103,391.975616 1487.666382,391.970581 
	C1406.170410,391.900085 1324.674438,391.922729 1243.178467,391.922699 
	C1241.702026,391.922699 1240.225708,391.922699 1238.162598,391.922699 
	C1238.162598,394.006531 1238.164795,395.780182 1238.162231,397.553864 
	C1237.790405,656.207397 1237.334229,914.860901 1237.207031,1173.514648 
	C1237.197021,1193.974731 1228.658691,1207.682007 1210.607422,1216.318359 
	C1183.963257,1229.066040 1156.528076,1229.780640 1129.040039,1220.447021 
	C1108.633545,1213.517944 1098.600464,1197.765259 1096.959473,1176.530884 
	C1096.677368,1172.880493 1096.644531,1169.203979 1096.644409,1165.539551 
	C1096.630737,892.553040 1096.615845,619.566528 1096.705200,346.580017 
	C1096.708008,337.949707 1097.278687,329.247314 1098.476929,320.703644 
	C1101.684326,297.834137 1115.359619,283.906860 1136.937866,276.937103 
	C1148.473022,273.211304 1160.253418,271.652161 1172.326660,271.654572 
	C1287.154297,271.677643 1401.982178,271.580811 1516.809692,271.715637 
	C1557.285156,271.763153 1594.082397,285.167450 1629.326050,303.846710 
	C1659.334106,319.751129 1680.766846,343.429230 1693.526245,374.823792 
	C1702.893921,397.873138 1707.803833,422.032135 1708.023315,446.840515 
	C1708.487915,499.328308 1708.433838,551.822937 1708.240601,604.313477 
	C1708.110962,639.530762 1694.928467,669.802124 1671.588501,695.783813 
	C1663.503174,704.784302 1654.857422,713.281189 1646.543457,721.929199 
	C1656.787598,728.913635 1667.916016,735.678406 1678.132202,743.617249 
	C1711.649536,769.663269 1731.416748,803.575195 1731.887329,846.537537 
	C1732.595459,911.190002 1732.477051,975.861755 1731.756348,1040.514648 
	C1731.463867,1066.751587 1724.423584,1091.782349 1711.180176,1115.160645 
z"/>
<path fill="#FFFFFF" opacity="1.000000" stroke="none" 
	d="
M789.214111,688.805054 
	C804.430481,696.715210 819.767883,703.700317 834.053223,712.410889 
	C871.521362,735.257507 894.600037,768.891785 903.689209,811.584412 
	C907.134094,827.765442 909.194092,844.537964 909.361694,861.066467 
	C909.953125,919.389282 909.649353,977.724426 909.265991,1036.052246 
	C909.112915,1059.342041 904.856445,1082.039185 896.356018,1103.844971 
	C886.323303,1129.581543 870.658875,1151.228027 848.639587,1167.892822 
	C816.389709,1192.300293 781.105042,1210.301147 740.607727,1216.419067 
	C733.714661,1217.460327 726.678101,1217.998413 719.706848,1218.007568 
	C632.542664,1218.122925 545.378235,1218.103516 458.213898,1218.105347 
	C425.969177,1218.105957 396.318085,1208.322388 368.123535,1193.608887 
	C347.552917,1182.874023 328.015961,1170.500854 311.711670,1153.684448 
	C288.446930,1129.688843 275.216949,1100.623047 270.248688,1067.941772 
	C267.930817,1052.694824 267.222961,1037.122803 266.883942,1021.674011 
	C266.350250,997.352966 266.604858,973.010620 266.780579,948.679077 
	C267.004272,917.709778 280.197662,901.103943 310.496155,894.606812 
	C331.309357,890.143555 352.244202,890.546814 372.731750,896.887817 
	C395.153015,903.827271 407.602051,920.050476 408.028168,943.403564 
	C408.462952,967.228333 408.236053,991.065186 408.293976,1014.896790 
	C408.335114,1031.819092 412.018799,1047.740479 419.884796,1062.892090 
	C431.008667,1084.319092 449.194611,1094.343018 472.281403,1096.911865 
	C479.051453,1097.665161 485.911346,1097.873535 492.730530,1097.880737 
	C557.729004,1097.949951 622.728149,1098.062012 687.725403,1097.770752 
	C697.462952,1097.727173 707.368042,1096.466187 716.888916,1094.373169 
	C739.659973,1089.367554 752.760742,1073.495972 761.098755,1052.815430 
	C765.829468,1041.082031 767.960144,1028.864868 767.964783,1016.258057 
	C767.982300,968.759155 767.961487,921.260193 767.976196,873.761292 
	C767.982605,853.146362 761.887024,834.477539 750.122498,817.624634 
	C739.321594,802.152222 723.513611,795.573914 705.596619,793.123840 
	C699.349792,792.269531 692.978943,792.017822 686.664185,792.011353 
	C614.332520,791.937683 541.992981,791.318115 469.672058,792.201416 
	C424.667480,792.751038 384.289764,779.749695 346.337463,756.727295 
	C300.357452,728.835144 275.932495,687.372925 268.927704,634.894287 
	C267.543213,624.521912 266.883514,613.979248 266.851746,603.512207 
	C266.697510,552.681335 266.295746,501.840179 267.109802,451.020721 
	C267.761383,410.342651 279.235809,372.928070 305.981750,341.270111 
	C317.993225,327.052643 332.246521,315.510864 348.599579,306.494171 
	C375.648956,291.579773 403.384827,278.452545 434.243286,273.631897 
	C442.597290,272.326813 451.148315,271.762146 459.610291,271.748993 
	C545.274841,271.615814 630.939819,271.787964 716.604187,271.605011 
	C748.207397,271.537506 777.148193,281.116547 805.071533,294.686462 
	C814.775513,299.402283 824.367004,304.450623 833.585205,310.046783 
	C867.504578,330.638458 889.407959,360.569122 900.951721,398.293610 
	C906.243408,415.586456 909.067322,433.332001 909.291382,451.398285 
	C909.619873,477.892883 909.943909,504.397003 909.591431,530.888062 
	C909.186951,561.291870 895.718628,577.789185 866.025574,584.234314 
	C845.072021,588.782532 824.014526,588.595581 803.310303,582.199524 
	C781.242676,575.382202 768.572998,558.865173 768.143921,535.533081 
	C767.760986,514.706970 767.966919,493.869354 767.984192,473.036865 
	C767.998108,456.390137 763.887207,440.923096 756.062988,426.181458 
	C745.356750,406.009796 728.201233,395.991699 706.260864,393.109558 
	C700.170044,392.309448 693.976196,391.978882 687.828979,391.971649 
	C621.330627,391.893433 554.830872,391.721039 488.334778,392.122467 
	C477.321442,392.188965 466.036133,393.799164 455.380249,396.607391 
	C434.405792,402.134979 422.911530,418.048035 415.028748,437.097443 
	C410.182800,448.808075 408.309723,461.090149 408.302582,473.689880 
	C408.280396,512.855652 408.284576,552.021423 408.300049,591.187195 
	C408.306732,608.123474 411.988037,624.076721 420.146576,639.091492 
	C430.234863,657.657837 445.920532,667.857239 466.386047,670.921509 
	C474.916504,672.198730 483.623291,672.821289 492.251709,672.838623 
	C565.083130,672.984863 637.916382,673.186523 710.745850,672.785706 
	C738.044739,672.635498 763.932129,677.897827 789.214111,688.805054 
z"/>
</svg>